HIERARCHY
ROOT Hips
{
	OFFSET 0.00 0.00 0.00
	CHANNELS 6 Xposition Yposition Zposition Xrotation Yrotation Zrotation
	JOINT Spine
	{
		OFFSET 0.00000 9.62115 0.00000
		CHANNELS 3 Xrotation Yrotation Zrotation
		JOINT Head
		{
			OFFSET 0.00000 12.77195 0.00000
			CHANNELS 3 Xrotation Yrotation Zrotation
			End Site
			{
				OFFSET 0.00000 4.52755 0.00000
			}
		}
		JOINT LeftShoulder
		{
			OFFSET 0.00000 7.40057 0.00000
			CHANNELS 3 Xrotation Yrotation Zrotation
			JOINT LeftArm
			{
				OFFSET 8.34930 0.00000 0.00000
				CHANNELS 3 Xrotation Yrotation Zrotation
				JOINT LeftForeArm
				{
					OFFSET 11.33484 0.00000 0.00000
					CHANNELS 3 Yrotation Zrotation Xrotation
					JOINT LeftHand
					{
						OFFSET 9.69418 0.00000 0.00000
						CHANNELS 3 Xrotation Yrotation Zrotation
						JOINT LeftHandThumb1
						{
							OFFSET 0.00000 0.00000 0.00000
							CHANNELS 3 Xrotation Zrotation Yrotation
							End Site
							{
								OFFSET 0.00000 0.00000 3.93700
							}
						}
						End Site
						{
							OFFSET 3.93700 0.00000 0.00000
						}
					}
				}
			}
		}
		JOINT RightShoulder
		{
			OFFSET 0.00000 7.40057 0.00000
			CHANNELS 3 Xrotation Yrotation Zrotation
			JOINT RightArm
			{
				OFFSET -8.34930 0.00000 0.00000
				CHANNELS 3 Xrotation Yrotation Zrotation
				JOINT RightForeArm
				{
					OFFSET -11.33484 0.00000 0.00000
					CHANNELS 3 Yrotation Zrotation Xrotation
					JOINT RightHand
					{
						OFFSET -9.69418 0.00000 0.00000
						CHANNELS 3 Xrotation Yrotation Zrotation
						JOINT RightHandThumb1
						{
							OFFSET 0.00000 0.00000 0.00000
							CHANNELS 3 Xrotation Zrotation Yrotation
							End Site
							{
								OFFSET 0.00000 0.00000 3.93700
							}
						}
						End Site
						{
							OFFSET -3.93700 0.00000 0.00000
						}
					}
				}
			}
		}
	}
	JOINT LeftUpLeg
	{
		OFFSET 2.70060 0.00000 0.00000
		CHANNELS 3 Xrotation Yrotation Zrotation
		JOINT LeftLeg
		{
			OFFSET 0.00000 -16.75718 0.00000
			CHANNELS 3 Xrotation Yrotation Zrotation
			JOINT LeftFoot
			{
				OFFSET 0.00000 -16.75915 0.00000
				CHANNELS 3 Xrotation Yrotation Zrotation
				JOINT LeftToeBase
				{
					OFFSET 0.00000 -1.51183 5.64225
					CHANNELS 3 Xrotation Yrotation Zrotation
					End Site
					{
						OFFSET 0.00000 0.00000 2.95275
					}
				}
			}
		}
	}
	JOINT RightUpLeg
	{
		OFFSET -2.70060 0.00000 0.00000
		CHANNELS 3 Xrotation Yrotation Zrotation
		JOINT RightLeg
		{
			OFFSET 0.00000 -16.75718 0.00000
			CHANNELS 3 Xrotation Yrotation Zrotation
			JOINT RightFoot
			{
				OFFSET 0.00000 -16.75915 0.00000
				CHANNELS 3 Xrotation Yrotation Zrotation
				JOINT RightToeBase
				{
					OFFSET 0.00000 -1.51183 5.64225
					CHANNELS 3 Xrotation Yrotation Zrotation
					End Site
					{
						OFFSET 0.00000 0.00000 2.95275
					}
				}
			}
		}
	}
}
MOTION
Frames:	13
Frame Time: 0.008333
-11.1116 35.1716 -13.6150 -174.4290 4.9236 177.2168 18.7188 -17.3469 1.0500 50.4304 -6.7311 -8.4117 -38.8748 -4.3276 52.0978 -90.3502 -25.9350 -35.8777 -54.9135 0.0000 -18.3101 -0.1480 2.0264 4.1767 32.8623 0.0000 24.3270 13.1648 -10.9730 -6.2631 -18.3023 32.4895 88.9286 30.2771 0.0000 -0.6529 0.5098 -4.6748 6.2309 33.1476 -0.0000 -26.2537 6.0697 27.3909 10.5335 1.2912 -0.0000 -0.0000 -5.6693 11.9395 -10.3214 5.6233 -0.0000 -0.0000 8.1773 -7.2544 -0.7100 2.4326 -0.0000 -0.0000 -12.9626 -12.1648 4.5189 15.1430 -0.0000 -0.0000
-11.1195 35.1735 -13.6552 -174.3281 5.1308 177.2015 18.6211 -17.2116 1.0315 50.8266 -6.7773 -8.5282 -39.1126 -3.8560 52.4075 -91.0734 -25.7730 -35.5488 -55.5727 0.0000 -18.3196 -0.1407 1.8880 4.2619 32.8623 0.0000 24.3270 13.1190 -10.9414 -6.3101 -18.2503 32.3863 88.9530 30.1192 0.0000 -0.4547 0.5133 -4.6846 6.2607 33.1476 -0.0000 -26.2537 6.2824 27.6038 10.4822 1.2549 -0.0000 -0.0000 -5.6733 11.9706 -10.3842 5.6338 -0.0000 -0.0000 8.3281 -7.0880 -0.7548 2.3906 -0.0000 -0.0000 -12.9370 -12.0907 4.5370 15.0914 -0.0000 -0.0000
-11.1281 35.1747 -13.6939 -174.2337 5.3117 177.2036 18.5024 -17.0289 0.9474 51.1575 -6.7891 -8.5314 -39.3097 -3.5155 52.6758 -91.7501 -25.6137 -35.3123 -56.1683 0.0000 -18.2472 -0.1431 1.7984 4.5502 32.8623 0.0000 24.3270 13.0634 -10.9520 -6.3013 -18.1648 32.3577 88.9376 29.9653 0.0000 -0.3883 0.5171 -4.6964 6.2910 33.1476 -0.0000 -26.2537 6.5143 27.7231 10.4064 1.2106 -0.0000 -0.0000 -5.6748 12.0455 -10.4395 5.6073 -0.0000 -0.0000 8.4623 -7.0002 -0.8177 2.3706 -0.0000 -0.0000 -12.9480 -11.9931 4.6468 15.0833 -0.0000 -0.0000
-11.1299 35.1753 -13.7308 -174.1224 5.4862 177.1888 18.3858 -16.8424 0.8403 51.4797 -6.7229 -8.5021 -39.4911 -3.3233 52.8736 -92.3153 -25.5009 -35.1838 -56.6966 -0.0000 -18.4677 -0.1429 1.7465 4.6791 32.8623 0.0000 24.3270 13.0631 -10.9487 -6.2719 -18.1374 32.3832 88.9304 29.7943 -0.0000 -0.3307 0.5225 -4.7004 6.3507 33.1476 -0.0000 -26.2537 6.7524 27.8131 10.3659 1.1677 -0.0000 -0.0000 -5.6678 12.1154 -10.5514 5.5933 -0.0000 -0.0000 8.6077 -6.9213 -0.8602 2.3699 -0.0000 -0.0000 -12.9648 -11.8583 4.7233 15.0589 -0.0000 -0.0000
-11.1312 35.1756 -13.7687 -173.9905 5.6481 177.1618 18.2835 -16.6339 0.7397 51.7474 -6.6499 -8.4167 -39.6297 -3.2306 52.9814 -92.8076 -25.4139 -35.1443 -57.1825 0.0000 -18.7162 -0.1467 1.6706 5.0185 32.8623 0.0000 24.3270 13.0501 -10.9520 -6.2512 -18.1077 32.4786 88.9109 29.6149 0.0000 -0.2767 0.5230 -4.6665 6.4022 33.1476 -0.0000 -26.2537 7.0230 27.9028 10.3291 1.0918 -0.0000 -0.0000 -5.6540 12.1866 -10.6265 5.5285 -0.0000 -0.0000 8.7977 -6.8325 -0.8905 2.3318 -0.0000 -0.0000 -12.9548 -11.7119 4.7881 15.0086 -0.0000 -0.0000
-11.1361 35.1758 -13.7990 -173.8923 5.7620 177.1448 18.1649 -16.4765 0.6582 51.9320 -6.6547 -8.3487 -39.7651 -3.1800 53.0469 -93.2859 -25.2514 -35.2752 -57.6489 0.0000 -18.9262 -0.1508 1.5917 5.4136 32.8623 0.0000 24.3270 12.9728 -10.9464 -6.2452 -18.0477 32.6525 88.8699 29.4445 -0.0000 -0.3204 0.5357 -4.6671 6.5550 33.1476 -0.0000 -26.2537 7.2434 27.9239 10.2832 1.0309 -0.0000 -0.0000 -5.6385 12.2962 -10.6865 5.5256 -0.0000 -0.0000 8.9471 -6.7584 -0.9236 2.2979 -0.0000 -0.0000 -12.9506 -11.6199 4.8871 14.9554 -0.0000 -0.0000
-11.1367 35.1748 -13.8282 -173.7750 5.8666 177.1230 18.0435 -16.3246 0.5524 52.0297 -6.5692 -8.2937 -39.8042 -3.2129 53.0785 -93.7012 -25.0587 -35.4707 -58.1214 -0.0000 -19.3962 -0.1459 1.4447 5.7653 32.8623 0.0000 24.3270 12.9193 -10.9207 -6.2420 -18.0296 32.8450 88.8505 29.2390 -0.0000 -0.2864 0.5465 -4.6722 6.6793 33.1476 -0.0000 -26.2537 7.4688 27.9914 10.2553 0.9645 -0.0000 -0.0000 -5.6154 12.3489 -10.7966 5.4726 -0.0000 -0.0000 9.1305 -6.6710 -0.9429 2.2376 -0.0000 -0.0000 -12.9481 -11.5390 4.9417 14.9365 -0.0000 -0.0000
-11.1386 35.1742 -13.8566 -173.6427 5.9235 177.0912 17.9504 -16.2659 0.4968 52.0828 -6.4975 -8.3245 -39.8098 -3.2098 53.0704 -94.1119 -24.8130 -35.8019 -58.5599 -0.0000 -19.8642 -0.1357 1.3549 5.7194 32.8623 0.0000 24.3270 12.8235 -10.8519 -6.2838 -18.0311 33.0614 88.8479 29.0138 -0.0000 -0.2232 0.5592 -4.6633 6.8457 33.1476 -0.0000 -26.2537 7.6989 28.0253 10.2390 0.8973 -0.0000 -0.0000 -5.6187 12.3795 -10.8552 5.4701 -0.0000 -0.0000 9.3278 -6.6252 -0.9514 2.1944 -0.0000 -0.0000 -12.9542 -11.4612 5.0225 14.9131 -0.0000 -0.0000
-11.1406 35.1727 -13.8788 -173.5109 5.9165 177.0611 17.8744 -16.2135 0.4228 52.0532 -6.3620 -8.2461 -39.8166 -3.3786 52.9922 -94.3768 -24.6310 -36.2224 -58.9357 0.0000 -20.3915 -0.1307 1.2578 5.9308 32.8623 0.0000 24.3270 12.7663 -10.8354 -6.2809 -18.0792 33.2441 88.8355 28.8232 -0.0000 -0.0256 0.5796 -4.6702 7.0830 33.1476 -0.0000 -26.2537 7.9075 27.9673 10.2259 0.8456 -0.0000 -0.0000 -5.6432 12.4681 -10.8648 5.5234 -0.0000 -0.0000 9.5136 -6.6576 -0.9472 2.1639 -0.0000 -0.0000 -12.9580 -11.3808 5.0510 14.8736 -0.0000 -0.0000
-11.1420 35.1708 -13.8948 -173.4002 5.8826 177.0308 17.8170 -16.2640 0.3739 51.9331 -6.2603 -8.2283 -39.7671 -3.4523 52.9068 -94.6981 -24.4587 -36.7242 -59.1997 0.0000 -20.8586 -0.1099 1.0325 6.0760 32.8623 0.0000 24.3270 12.6339 -10.8163 -6.2867 -18.1495 33.5422 88.8133 28.6591 0.0000 -0.0676 0.6305 -4.8267 7.4509 33.1476 -0.0000 -26.2537 8.0623 27.8885 10.2285 0.8214 -0.0000 -0.0000 -5.6860 12.5510 -10.8421 5.5809 -0.0000 -0.0000 9.6481 -6.7320 -0.9356 2.1790 -0.0000 -0.0000 -12.9818 -11.3048 5.0948 14.8618 -0.0000 -0.0000
-11.1470 35.1682 -13.9098 -173.2753 5.8330 176.9882 17.7803 -16.3261 0.3736 51.7245 -6.0759 -8.3074 -39.6986 -3.5702 52.7461 -94.8564 -24.3697 -37.2503 -59.3779 0.0000 -21.5067 -0.0938 0.8750 6.1166 32.8623 0.0000 24.3270 12.4896 -10.7540 -6.3397 -18.1560 33.7126 88.7927 28.5680 -0.0000 0.2219 0.6432 -4.8510 7.5617 33.1476 -0.0000 -26.2537 8.2281 27.8131 10.2370 0.7862 -0.0000 -0.0000 -5.7309 12.6205 -10.8155 5.5854 -0.0000 -0.0000 9.7850 -6.8073 -0.9140 2.2209 -0.0000 -0.0000 -13.0373 -11.2649 5.1404 14.7250 -0.0000 -0.0000
-11.1521 35.1642 -13.9237 -173.1198 5.7842 176.9399 17.7958 -16.3939 0.3576 51.4718 -5.8740 -8.3147 -39.5984 -3.7255 52.6019 -94.8849 -24.3072 -37.7719 -59.4744 0.0000 -21.9321 -0.0769 0.7217 6.0797 32.8623 0.0000 24.3270 12.3642 -10.7215 -6.3707 -18.2537 33.9341 88.7809 28.4735 0.0000 0.3814 0.6623 -4.9296 7.6618 33.1476 -0.0000 -26.2537 8.4094 27.7663 10.2544 0.7653 -0.0000 -0.0000 -5.8009 12.6687 -10.7651 5.5863 -0.0000 -0.0000 9.9427 -6.8550 -0.8886 2.2776 -0.0000 -0.0000 -13.1116 -11.2536 5.1877 14.9413 -0.0000 -0.0000
-11.1562 35.1601 -13.9331 -172.9702 5.7227 176.8937 17.8220 -16.5166 0.3393 51.2109 -5.6844 -8.2977 -39.4334 -3.8397 52.4572 -94.8980 -24.2992 -38.3118 -59.4702 0.0000 -22.2781 -0.0667 0.6424 5.9291 32.8623 0.0000 24.3270 12.2693 -10.6382 -6.3900 -18.3464 33.9822 88.7523 28.5016 0.0000 0.4956 0.7119 -5.1291 7.9124 33.1476 -0.0000 -26.2537 8.5527 27.7244 10.2849 0.7764 -0.0000 -0.0000 -5.8919 12.6723 -10.6668 5.7084 -0.0000 -0.0000 10.0716 -6.8969 -0.8613 2.3708 -0.0000 -0.0000 -13.1941 -11.2471 5.2049 14.9700 -0.0000 -0.0000
